<svg xmlns="http://www.w3.org/2000/svg" viewBox="0 0 64 64">
  <defs>
    <linearGradient id="bg" x1="0" y1="0" x2="0" y2="1">
      <stop offset="0" stop-color="#2e4496"/>
      <stop offset="1" stop-color="#101d4d"/>
    </linearGradient>
  </defs>
  <rect width="64" height="64" rx="14" fill="url(#bg)"/>
  <g transform="translate(-3.5,-6)">
    <path fill="#0a1840" d="M16 42c-2-16 9-26 24-23 12 2 18 11 16 24-2 13-12 16-25 15-11-1-14-6-15-16z"/>
    <path fill="#f7faff" d="M19 42c-2-14 8-22 21-20 10 2 15 9 13 20-1 10-9 13-21 12-8-1-12-4-13-12z"/>
    <ellipse cx="31" cy="41" rx="2.4" ry="4.4" fill="#0a1840"/>
    <ellipse cx="42" cy="42" rx="2.4" ry="4.4" fill="#0a1840"/>
  </g>
</svg>
